<?xml version="1.0" encoding="UTF-8"?>
<svg width="170px" height="50px" viewBox="0 0 170 50" version="1.1" xmlns="http://www.w3.org/2000/svg" xmlns:xlink="http://www.w3.org/1999/xlink">
    <!-- Generator: Sketch 49.3 (51167) - http://www.bohemiancoding.com/sketch -->
    <title>badge-appstore-white</title>
    <desc>Created with Sketch.</desc>
    <defs></defs>
    <g id="badge-appstore" stroke="none" stroke-width="1" fill="none" fill-rule="evenodd">
        <path d="M66.9503333,39.38 L64.0737333,39.38 L62.498,34.49375 L57.0209333,34.49375 L55.5199333,39.38 L52.7193333,39.38 L58.1457333,22.745 L61.4973333,22.745 L66.9503333,39.38 L66.9503333,39.38 L66.9503333,39.38 Z M62.023,32.44375 L60.598,28.1 C60.4472667,27.65625 60.1648,26.61125 59.7480667,24.96625 L59.6974,24.96625 C59.5314667,25.67375 59.2642,26.71875 58.8968667,28.1 L57.4972,32.44375 L62.023,32.44375 L62.023,32.44375 Z M80.9052,33.235 C80.9052,35.275 80.3466,36.8875 79.2294,38.07125 C78.2287333,39.125 76.9861333,39.65125 75.5028667,39.65125 C73.9018,39.65125 72.7516667,39.08375 72.0512,37.94875 L72.0005333,37.94875 L72.0005333,44.2675 L69.3,44.2675 L69.3,31.33375 C69.3,30.05125 69.2658,28.735 69.1999333,27.385 L71.5749333,27.385 L71.7256667,29.28625 L71.7763333,29.28625 C72.6769333,27.85375 74.0436667,27.13875 75.8778,27.13875 C77.3116667,27.13875 78.5086667,27.6975 79.4662667,28.81625 C80.4264,29.93625 80.9052,31.40875 80.9052,33.235 L80.9052,33.235 Z M78.154,33.3325 C78.154,32.165 77.888,31.2025 77.3534667,30.445 C76.7695333,29.655 75.9854667,29.26 75.0025333,29.26 C74.3362667,29.26 73.7308,29.48 73.1899333,29.91375 C72.6478,30.35125 72.2931333,30.9225 72.1272,31.63 C72.0436,31.96 72.0018,32.23 72.0018,32.4425 L72.0018,34.4425 C72.0018,35.315 72.2728667,36.05125 72.815,36.6525 C73.3571333,37.25375 74.0614,37.55375 74.9278,37.55375 C75.9449333,37.55375 76.7366,37.16625 77.3028,36.39375 C77.8702667,35.62 78.154,34.6 78.154,33.3325 L78.154,33.3325 Z M94.8854,33.235 C94.8854,35.275 94.3268,36.8875 93.2083333,38.07125 C92.2089333,39.125 90.9663333,39.65125 89.4830667,39.65125 C87.882,39.65125 86.7318667,39.08375 86.0326667,37.94875 L85.982,37.94875 L85.982,44.2675 L83.2814667,44.2675 L83.2814667,31.33375 C83.2814667,30.05125 83.2472667,28.735 83.1814,27.385 L85.5564,27.385 L85.7071333,29.28625 L85.7578,29.28625 C86.6571333,27.85375 88.0238667,27.13875 89.8592667,27.13875 C91.2918667,27.13875 92.4888667,27.6975 93.449,28.81625 C94.4053333,29.93625 94.8854,31.40875 94.8854,33.235 L94.8854,33.235 Z M92.1342,33.3325 C92.1342,32.165 91.8669333,31.2025 91.3324,30.445 C90.7484667,29.655 89.9669333,29.26 88.9827333,29.26 C88.3152,29.26 87.711,29.48 87.1688667,29.91375 C86.6267333,30.35125 86.2733333,30.9225 86.1074,31.63 C86.0250667,31.96 85.982,32.23 85.982,32.4425 L85.982,34.4425 C85.982,35.315 86.2530667,36.05125 86.7926667,36.6525 C87.3348,37.2525 88.0390667,37.55375 88.908,37.55375 C89.9251333,37.55375 90.7168,37.16625 91.283,36.39375 C91.8504667,35.62 92.1342,34.6 92.1342,33.3325 L92.1342,33.3325 Z M110.516067,34.715 C110.516067,36.13 110.018267,37.28125 109.018867,38.17 C107.920667,39.14125 106.3918,39.62625 104.4272,39.62625 C102.613333,39.62625 101.1592,39.28125 100.058467,38.59 L100.6842,36.36875 C101.8698,37.07625 103.170667,37.43125 104.588067,37.43125 C105.6052,37.43125 106.396867,37.20375 106.9656,36.75125 C107.5318,36.29875 107.814267,35.69125 107.814267,34.93375 C107.814267,34.25875 107.5812,33.69 107.1138,33.22875 C106.648933,32.7675 105.872467,32.33875 104.7882,31.9425 C101.836867,30.85625 100.362467,29.265 100.362467,27.1725 C100.362467,25.805 100.879267,24.68375 101.914133,23.81125 C102.9452,22.9375 104.3208,22.50125 106.040933,22.50125 C107.574867,22.50125 108.849133,22.765 109.866267,23.29125 L109.191133,25.46375 C108.241133,24.95375 107.167,24.69875 105.964933,24.69875 C105.014933,24.69875 104.272667,24.93 103.740667,25.39 C103.291,25.80125 103.065533,26.3025 103.065533,26.89625 C103.065533,27.55375 103.322667,28.0975 103.839467,28.525 C104.289133,28.92 105.106133,29.3475 106.291733,29.80875 C107.742067,30.385 108.807333,31.05875 109.4926,31.83125 C110.175333,32.60125 110.516067,33.565 110.516067,34.715 L110.516067,34.715 Z M119.4448,29.385 L116.468133,29.385 L116.468133,35.20875 C116.468133,36.69 116.992533,37.43 118.043867,37.43 C118.526467,37.43 118.926733,37.38875 119.2434,37.30625 L119.318133,39.33 C118.786133,39.52625 118.085667,39.625 117.218,39.625 C116.151467,39.625 115.318,39.30375 114.716333,38.6625 C114.1172,38.02 113.815733,36.9425 113.815733,35.42875 L113.815733,29.3825 L112.0424,29.3825 L112.0424,27.3825 L113.815733,27.3825 L113.815733,25.18625 L116.468133,24.39625 L116.468133,27.3825 L119.4448,27.3825 L119.4448,29.385 L119.4448,29.385 Z M132.875267,33.28375 C132.875267,35.1275 132.340733,36.64125 131.2742,37.825 C130.155733,39.04375 128.6712,39.65125 126.8206,39.65125 C125.037133,39.65125 123.6172,39.0675 122.558267,37.9 C121.499333,36.7325 120.969867,35.25875 120.969867,33.4825 C120.969867,31.62375 121.514533,30.10125 122.607667,28.9175 C123.698267,27.7325 125.170133,27.14 127.020733,27.14 C128.8042,27.14 130.239333,27.72375 131.322333,28.8925 C132.358467,30.02625 132.875267,31.49 132.875267,33.28375 L132.875267,33.28375 Z M130.0734,33.37 C130.0734,32.26375 129.834,31.315 129.348867,30.52375 C128.782667,29.56625 127.973267,29.08875 126.924467,29.08875 C125.838933,29.08875 125.014333,29.5675 124.448133,30.52375 C123.963,31.31625 123.7236,32.28 123.7236,33.42 C123.7236,34.52625 123.963,35.475 124.448133,36.265 C125.032067,37.2225 125.8478,37.7 126.9004,37.7 C127.931467,37.7 128.740867,37.2125 129.3248,36.24 C129.8226,35.43375 130.0734,34.475 130.0734,33.37 L130.0734,33.37 Z M141.653267,29.72875 C141.386,29.68 141.101,29.655 140.802067,29.655 C139.852067,29.655 139.1174,30.00875 138.6006,30.7175 C138.150933,31.3425 137.925467,32.1325 137.925467,33.08625 L137.925467,39.38 L135.2262,39.38 L135.251533,31.1625 C135.251533,29.78 135.217333,28.52125 135.1502,27.38625 L137.5024,27.38625 L137.6012,29.68125 L137.675933,29.68125 C137.960933,28.8925 138.4106,28.2575 139.0262,27.78125 C139.627867,27.3525 140.277667,27.13875 140.978133,27.13875 C141.227667,27.13875 141.453133,27.15625 141.653267,27.1875 L141.653267,29.72875 L141.653267,29.72875 Z M153.730933,32.815 C153.730933,33.2925 153.699267,33.695 153.632133,34.02375 L145.530533,34.02375 C145.5622,35.20875 145.9536,36.115 146.706,36.74 C147.388733,37.29875 148.2716,37.57875 149.355867,37.57875 C150.5554,37.57875 151.6498,37.39 152.634,37.01125 L153.057067,38.86125 C151.906933,39.35625 150.549067,39.6025 148.9822,39.6025 C147.0974,39.6025 145.617933,39.055 144.541267,37.96125 C143.467133,36.8675 142.9288,35.39875 142.9288,33.55625 C142.9288,31.7475 143.429133,30.24125 144.431067,29.04 C145.479867,27.7575 146.897267,27.11625 148.680733,27.11625 C150.432533,27.11625 151.758733,27.7575 152.659333,29.04 C153.372467,30.05875 153.730933,31.31875 153.730933,32.815 L153.730933,32.815 Z M151.1558,32.12375 C151.173533,31.33375 150.997467,30.65125 150.6314,30.075 C150.164,29.33375 149.4458,28.96375 148.479333,28.96375 C147.596467,28.96375 146.878267,29.325 146.3298,30.05 C145.880133,30.62625 145.612867,31.3175 145.530533,32.1225 L151.1558,32.1225 L151.1558,32.12375 L151.1558,32.12375 Z M61.13,12.51125 C61.13,13.9825 60.6828667,15.09 59.7898667,15.83375 C58.9627333,16.52 57.7872667,16.86375 56.2647333,16.86375 C55.5098,16.86375 54.8638,16.83125 54.3229333,16.76625 L54.3229333,8.7275 C55.0284667,8.615 55.7884667,8.5575 56.6092667,8.5575 C58.0596,8.5575 59.1527333,8.86875 59.8899333,9.49125 C60.7158,10.195 61.13,11.20125 61.13,12.51125 L61.13,12.51125 Z M59.7303333,12.5475 C59.7303333,11.59375 59.4744667,10.8625 58.9627333,10.3525 C58.451,9.84375 57.7036667,9.58875 56.7194667,9.58875 C56.3014667,9.58875 55.9455333,9.61625 55.6504,9.67375 L55.6504,15.785 C55.8138,15.81 56.1127333,15.82125 56.5472,15.82125 C57.5630667,15.82125 58.3471333,15.5425 58.8994,14.985 C59.4516667,14.4275 59.7303333,13.615 59.7303333,12.5475 L59.7303333,12.5475 Z M68.5514,13.79625 C68.5514,14.7025 68.2892,15.445 67.7648,16.0275 C67.2150667,16.62625 66.4867333,16.925 65.5772667,16.925 C64.7007333,16.925 64.0028,16.63875 63.4822,16.06375 C62.9628667,15.49 62.7032,14.76625 62.7032,13.89375 C62.7032,12.98125 62.9704667,12.2325 63.5075333,11.65125 C64.0446,11.07 64.7666,10.77875 65.6760667,10.77875 C66.5526,10.77875 67.2568667,11.065 67.7901333,11.63875 C68.2968,12.19625 68.5514,12.91625 68.5514,13.79625 L68.5514,13.79625 Z M67.1745333,13.83875 C67.1745333,13.295 67.0554667,12.82875 66.8186,12.44 C66.5399333,11.97 66.1434667,11.735 65.6279333,11.735 C65.0946667,11.735 64.6893333,11.97 64.4106667,12.44 C64.1725333,12.82875 64.0547333,13.3025 64.0547333,13.8625 C64.0547333,14.40625 64.1738,14.8725 64.4106667,15.26125 C64.6982,15.73125 65.0984667,15.96625 65.6152667,15.96625 C66.1219333,15.96625 66.5196667,15.7275 66.8059333,15.24875 C67.0516667,14.8525 67.1745333,14.3825 67.1745333,13.83875 L67.1745333,13.83875 Z M78.5023333,10.89875 L76.634,16.79125 L75.418,16.79125 L74.6440667,14.2325 C74.4477333,13.59375 74.2881333,12.95875 74.164,12.32875 L74.1399333,12.32875 C74.0246667,12.97625 73.8650667,13.61 73.6598667,14.2325 L72.8378,16.79125 L71.6078667,16.79125 L69.851,10.89875 L71.2152,10.89875 L71.8903333,13.7 C72.0537333,14.3625 72.188,14.99375 72.2956667,15.59125 L72.3197333,15.59125 C72.4185333,15.09875 72.5819333,14.47125 72.8124667,13.7125 L73.6598667,10.9 L74.7416,10.9 L75.5535333,13.6525 C75.7498667,14.32375 75.9094667,14.97 76.0323333,15.5925 L76.0690667,15.5925 C76.159,14.98625 76.2945333,14.34 76.4744,13.6525 L77.1989333,10.9 L78.5023333,10.9 L78.5023333,10.89875 L78.5023333,10.89875 Z M85.3841333,16.79125 L84.0566667,16.79125 L84.0566667,13.41625 C84.0566667,12.37625 83.6564,11.85625 82.8533333,11.85625 C82.4594,11.85625 82.1414667,11.99875 81.8944667,12.285 C81.65,12.57125 81.5258667,12.90875 81.5258667,13.295 L81.5258667,16.79 L80.1984,16.79 L80.1984,12.5825 C80.1984,12.065 80.1819333,11.50375 80.1502667,10.89625 L81.3168667,10.89625 L81.3789333,11.8175 L81.4156667,11.8175 C81.5702,11.53125 81.8007333,11.295 82.1034667,11.10625 C82.4632,10.88625 82.866,10.775 83.3068,10.775 C83.8641333,10.775 84.3277333,10.9525 84.6963333,11.30875 C85.1548667,11.745 85.3841333,12.39625 85.3841333,13.26125 L85.3841333,16.79125 L85.3841333,16.79125 L85.3841333,16.79125 Z M89.0448,16.79125 L87.7186,16.79125 L87.7186,8.195 L89.0448,8.195 L89.0448,16.79125 L89.0448,16.79125 Z M96.8601333,13.79625 C96.8601333,14.7025 96.5979333,15.445 96.0735333,16.0275 C95.5238,16.62625 94.7942,16.925 93.886,16.925 C93.0082,16.925 92.3102667,16.63875 91.7909333,16.06375 C91.2716,15.49 91.0119333,14.76625 91.0119333,13.89375 C91.0119333,12.98125 91.2792,12.2325 91.8162667,11.65125 C92.3533333,11.07 93.0753333,10.77875 93.9835333,10.77875 C94.8613333,10.77875 95.5643333,11.065 96.0988667,11.63875 C96.6055333,12.19625 96.8601333,12.91625 96.8601333,13.79625 L96.8601333,13.79625 Z M95.482,13.83875 C95.482,13.295 95.3629333,12.82875 95.1260667,12.44 C94.8486667,11.97 94.4509333,11.735 93.9366667,11.735 C93.4021333,11.735 92.9968,11.97 92.7194,12.44 C92.4812667,12.82875 92.3634667,13.3025 92.3634667,13.8625 C92.3634667,14.40625 92.4825333,14.8725 92.7194,15.26125 C93.0069333,15.73125 93.4072,15.96625 93.924,15.96625 C94.4306667,15.96625 94.8271333,15.7275 95.1134,15.24875 C95.3604,14.8525 95.482,14.3825 95.482,13.83875 L95.482,13.83875 Z M103.284667,16.79125 L102.092733,16.79125 L101.993933,16.1125 L101.9572,16.1125 C101.549333,16.65375 100.967933,16.925 100.213,16.925 C99.6493333,16.925 99.1933333,16.74625 98.8500667,16.39125 C98.5384667,16.06875 98.3826667,15.6675 98.3826667,15.19125 C98.3826667,14.47125 98.6866667,13.9225 99.2984667,13.5425 C99.909,13.1625 100.7678,12.97625 101.8736,12.985 L101.8736,12.875 C101.8736,12.09875 101.460667,11.71125 100.633533,11.71125 C100.044533,11.71125 99.5252,11.8575 99.0768,12.1475 L98.807,11.2875 C99.3618,10.94875 100.047067,10.77875 100.8552,10.77875 C102.415733,10.77875 103.198533,11.59125 103.198533,13.21625 L103.198533,15.38625 C103.198533,15.975 103.227667,16.44375 103.284667,16.79125 L103.284667,16.79125 Z M101.906533,14.76625 L101.906533,13.8575 C100.442267,13.8325 99.7101333,14.22875 99.7101333,15.045 C99.7101333,15.3525 99.7937333,15.5825 99.9647333,15.73625 C100.135733,15.89 100.3536,15.96625 100.613267,15.96625 C100.9046,15.96625 101.176933,15.875 101.4252,15.69375 C101.674733,15.51125 101.828,15.28 101.885,14.99625 C101.898933,14.9325 101.906533,14.855 101.906533,14.76625 L101.906533,14.76625 Z M110.827667,16.79125 L109.649667,16.79125 L109.5876,15.845 L109.550867,15.845 C109.174667,16.565 108.533733,16.925 107.633133,16.925 C106.913667,16.925 106.314533,16.64625 105.839533,16.08875 C105.364533,15.53125 105.127667,14.8075 105.127667,13.91875 C105.127667,12.965 105.3848,12.1925 105.9016,11.6025 C106.401933,11.0525 107.015,10.7775 107.7446,10.7775 C108.5464,10.7775 109.107533,11.04375 109.426733,11.5775 L109.452067,11.5775 L109.452067,8.195 L110.7808,8.195 L110.7808,15.20375 C110.7808,15.7775 110.796,16.30625 110.827667,16.79125 L110.827667,16.79125 Z M109.452067,14.30625 L109.452067,13.32375 C109.452067,13.15375 109.4394,13.01625 109.415333,12.91125 C109.3406,12.59625 109.179733,12.33125 108.935267,12.1175 C108.688267,11.90375 108.3906,11.79625 108.047333,11.79625 C107.552067,11.79625 107.164467,11.99 106.879467,12.37875 C106.597,12.7675 106.453867,13.26375 106.453867,13.87 C106.453867,14.4525 106.5894,14.925 106.861733,15.28875 C107.149267,15.67625 107.536867,15.87 108.022,15.87 C108.457733,15.87 108.806067,15.70875 109.0708,15.385 C109.326667,15.08625 109.452067,14.72625 109.452067,14.30625 L109.452067,14.30625 Z M122.1808,13.79625 C122.1808,14.7025 121.9186,15.445 121.3942,16.0275 C120.844467,16.62625 120.1174,16.925 119.206667,16.925 C118.3314,16.925 117.633467,16.63875 117.1116,16.06375 C116.592267,15.49 116.3326,14.76625 116.3326,13.89375 C116.3326,12.98125 116.599867,12.2325 117.136933,11.65125 C117.674,11.07 118.396,10.77875 119.306733,10.77875 C120.182,10.77875 120.887533,11.065 121.419533,11.63875 C121.9262,12.19625 122.1808,12.91625 122.1808,13.79625 L122.1808,13.79625 Z M120.8052,13.83875 C120.8052,13.295 120.686133,12.82875 120.449267,12.44 C120.169333,11.97 119.774133,11.735 119.257333,11.735 C118.725333,11.735 118.32,11.97 118.040067,12.44 C117.801933,12.82875 117.684133,13.3025 117.684133,13.8625 C117.684133,14.40625 117.8032,14.8725 118.040067,15.26125 C118.3276,15.73125 118.727867,15.96625 119.244667,15.96625 C119.751333,15.96625 120.150333,15.7275 120.4366,15.24875 C120.681067,14.8525 120.8052,14.3825 120.8052,13.83875 L120.8052,13.83875 Z M129.318467,16.79125 L127.992267,16.79125 L127.992267,13.41625 C127.992267,12.37625 127.592,11.85625 126.787667,11.85625 C126.393733,11.85625 126.0758,11.99875 125.830067,12.285 C125.584333,12.57125 125.461467,12.90875 125.461467,13.295 L125.461467,16.79 L124.132733,16.79 L124.132733,12.5825 C124.132733,12.065 124.117533,11.50375 124.085867,10.89625 L125.2512,10.89625 L125.313267,11.8175 L125.35,11.8175 C125.5058,11.53125 125.736333,11.295 126.0378,11.10625 C126.3988,10.88625 126.800333,10.775 127.2424,10.775 C127.798467,10.775 128.262067,10.9525 128.630667,11.30875 C129.090467,11.745 129.318467,12.39625 129.318467,13.26125 L129.318467,16.79125 L129.318467,16.79125 L129.318467,16.79125 Z M138.252267,11.88 L136.790533,11.88 L136.790533,14.7425 C136.790533,15.47 137.0502,15.83375 137.564467,15.83375 C137.8026,15.83375 138.0002,15.81375 138.156,15.7725 L138.1902,16.76625 C137.928,16.86375 137.583467,16.9125 137.159133,16.9125 C136.634733,16.9125 136.226867,16.755 135.931733,16.44 C135.635333,16.125 135.4884,15.595 135.4884,14.85125 L135.4884,11.88 L134.615667,11.88 L134.615667,10.89875 L135.4884,10.89875 L135.4884,9.81875 L136.789267,9.43125 L136.789267,10.8975 L138.251,10.8975 L138.251,11.88 L138.252267,11.88 L138.252267,11.88 Z M145.279733,16.79125 L143.951,16.79125 L143.951,13.44125 C143.951,12.385 143.550733,11.85625 142.748933,11.85625 C142.133333,11.85625 141.7128,12.1625 141.482267,12.775 C141.443,12.90375 141.4202,13.06125 141.4202,13.24625 L141.4202,16.79 L140.094,16.79 L140.094,8.195 L141.4202,8.195 L141.4202,11.74625 L141.445533,11.74625 C141.863533,11.1 142.462667,10.7775 143.239133,10.7775 C143.788867,10.7775 144.2436,10.955 144.6046,11.31125 C145.054267,11.755 145.279733,12.415 145.279733,13.2875 L145.279733,16.79125 L145.279733,16.79125 L145.279733,16.79125 Z M152.528867,13.56625 C152.528867,13.80125 152.511133,13.99875 152.479467,14.16 L148.498333,14.16 C148.516067,14.7425 148.706067,15.18625 149.074667,15.49375 C149.4116,15.76875 149.846067,15.90625 150.378067,15.90625 C150.967067,15.90625 151.504133,15.81375 151.988,15.6275 L152.195733,16.5375 C151.629533,16.78 150.963267,16.90125 150.191867,16.90125 C149.2672,16.90125 148.538867,16.6325 148.011933,16.095 C147.482467,15.5575 147.220267,14.83625 147.220267,13.93125 C147.220267,13.0425 147.464733,12.3025 147.957467,11.7125 C148.471733,11.0825 149.167133,10.7675 150.044933,10.7675 C150.903733,10.7675 151.556067,11.0825 151.996867,11.7125 C152.3528,12.2125 152.528867,12.83125 152.528867,13.56625 L152.528867,13.56625 Z M151.2622,13.2275 C151.272333,12.83875 151.184933,12.50375 151.005067,12.22125 C150.774533,11.8575 150.423667,11.675 149.948667,11.675 C149.515467,11.675 149.162067,11.8525 148.892267,12.20875 C148.671867,12.4925 148.5414,12.83125 148.498333,13.2275 L151.2622,13.2275 L151.2622,13.2275 Z" id="Text" fill="#FFFFFF"></path>
        <path d="M37.1621333,24.73 C37.2039333,29.55875 41.4422,31.155 41.4941333,31.1725 C41.4688,31.285 40.8304,33.47625 39.2407333,35.70125 C37.9132667,37.66 36.5224667,39.575 34.3134,39.61 C32.1676667,39.65875 31.4456667,38.36375 28.9845333,38.36375 C26.5006,38.36375 25.7317333,39.575 23.6734,39.65875 C21.5694667,39.735 19.9620667,37.5675 18.5864667,35.62625 C15.8365333,31.6625 13.6958667,24.45625 16.5661333,19.5525 C17.9569333,17.1475 20.4928,15.59875 23.2034667,15.5575 C25.3099333,15.515 27.2644,16.96125 28.5589333,16.96125 C29.8281333,16.96125 32.2449333,15.23125 34.7364667,15.49 C35.7789333,15.52 38.7454667,15.89625 40.6594,18.65 C40.5048667,18.74125 37.1254,20.70125 37.1621333,24.73 Z M33.1088,12.8825 C31.9536,14.2275 30.1055333,15.25625 28.3056,15.12375 C28.07,13.30875 28.982,11.37875 30.0029333,10.20125 C31.1568667,8.865 33.1607333,7.84125 34.7630667,7.77125 C34.9733333,9.6575 34.2158667,11.51625 33.1088,12.8825 Z" id="Logo" fill="#FFFFFF"></path>
    </g>
</svg>