<?xml version="1.0" encoding="UTF-8"?>
<svg width="170px" height="50px" viewBox="0 0 170 50" version="1.1" xmlns="http://www.w3.org/2000/svg" xmlns:xlink="http://www.w3.org/1999/xlink">
    <!-- Generator: Sketch 49.3 (51167) - http://www.bohemiancoding.com/sketch -->
    <title>badge-google-play-white</title>
    <desc>Created with Sketch.</desc>
    <defs></defs>
    <g id="badge-google-play" stroke="none" stroke-width="1" fill="none" fill-rule="evenodd">
        <path d="M151.49107,41.7716915 L149.059621,41.7716915 L151.433595,36.5064684 L147.271644,27.0393125 L149.783058,27.0393125 L152.556859,33.8113839 L152.631826,33.8113839 L155.304421,27.0393125 L157.897049,27.0393125 L151.49107,41.7716915 L151.49107,41.7716915 Z M144.860187,35.8030226 L144.780222,35.8030226 C144.140945,36.8162582 143.001228,37.4016736 141.805258,37.3311118 C140.832387,37.4033509 139.8717,37.0787381 139.142032,36.4312174 C138.412365,35.7836967 137.975854,34.8684087 137.931933,33.8938482 C137.931933,31.6035887 140.203451,30.3778687 142.429988,30.3778687 C143.277645,30.3757657 144.112755,30.5826121 144.861437,30.9801083 L144.861437,30.8201774 C144.735847,29.5901136 143.640843,28.6921208 142.409997,28.8097968 C141.535301,28.7344576 140.69901,29.1842396 140.279668,29.9555514 L138.210563,29.0909253 C138.997314,27.5369338 140.631245,26.598 142.370014,26.7007089 C145.042608,26.7007089 147.117961,28.24754 147.117961,31.020091 L147.117961,37.0087512 L144.868933,37.0087512 L144.868933,35.8030226 L144.860187,35.8030226 L144.860187,35.8030226 Z M142.729858,32.2670517 C141.584104,32.2670517 140.258427,32.7293518 140.258427,33.9350804 C140.410733,34.7980563 141.220125,35.3846444 142.087636,35.2607571 C143.499384,35.2450794 144.683015,34.1899998 144.860187,32.7893259 C144.209732,32.4274207 143.473946,32.2470344 142.729858,32.2670517 L142.729858,32.2670517 L142.729858,32.2670517 Z M134.30975,21.4154945 L136.638743,21.4154945 L136.638743,37.0349898 L134.307251,37.0349898 L134.307251,21.416744 L134.30975,21.4154945 L134.30975,21.4154945 Z M127.900022,31.1175489 L124.64393,31.1175489 L124.64393,37.0349898 L122.313687,37.0349898 L122.313687,21.416744 L127.900022,21.416744 C129.697254,21.316782 131.402439,22.2187799 132.33116,23.7606992 C133.25988,25.3026185 133.25988,27.2316743 132.33116,28.7735936 C131.402439,30.3155129 129.697254,31.2175108 127.900022,31.1175489 L127.900022,31.1175489 L127.900022,31.1175489 Z M127.959996,23.5895543 L124.64393,23.5895543 L124.64393,28.943489 L127.959996,28.943489 C128.930171,28.9644502 129.835756,28.4588571 130.326995,27.6219804 C130.818235,26.7851036 130.818235,25.7479398 130.326995,24.911063 C129.835756,24.0741862 128.930171,23.5685932 127.959996,23.5895543 L127.959996,23.5895543 L127.959996,23.5895543 Z M112.675356,35.263256 C113.745483,35.2687796 114.739492,34.7105394 115.291724,33.7938915 L117.103441,35.002119 C116.117632,36.48215 114.453617,37.3672143 112.675356,37.3573504 C111.263495,37.3777077 109.904053,36.8230642 108.90939,35.8208607 C107.914727,34.8186572 107.370367,33.4550655 107.401386,32.0433985 C107.328974,30.6655143 107.823612,29.3180221 108.770291,28.3142259 C109.71697,27.3104297 111.033209,26.7377885 112.412969,26.7294465 C114.489527,26.787608 116.307745,28.1389117 116.962252,30.1104844 L117.203397,30.7139734 L110.09772,33.653952 C110.545987,34.6678995 111.567551,35.3056956 112.675356,35.263256 L112.675356,35.263256 L112.675356,35.263256 Z M114.465831,29.9093213 C114.093761,29.1722381 113.316738,28.7293498 112.492934,28.7848076 C111.710817,28.8200937 110.975771,29.1685109 110.453317,29.7516007 C109.930863,30.3346906 109.664924,31.1034324 109.715386,31.8847171 L114.465831,29.9093213 L114.465831,29.9093213 Z M103.937884,21.4129956 L106.276873,21.4129956 L106.276873,37.0349898 L103.941632,37.0349898 L103.941632,21.416744 L103.937884,21.4129956 L103.937884,21.4129956 Z M97.280763,42.1277875 C95.2175856,42.1384522 93.3542191,40.8963727 92.5703,38.9878953 L94.6031709,38.1420111 C95.0289406,39.2576525 96.0869789,40.005142 97.280763,40.0336931 C99.0300065,40.0336931 100.119535,38.9466631 100.119535,36.9100439 L100.119535,36.1453746 L100.029574,36.1453746 C99.3199718,36.9397219 98.2968057,37.3816163 97.2320341,37.3536021 C94.3867898,37.2301726 92.1436087,34.8875703 92.1436087,32.0396501 C92.1436087,29.1917298 94.3867898,26.8491276 97.2320341,26.7256981 C98.2919159,26.700318 99.3113398,27.132856 100.029574,27.9126848 L100.110789,27.9126848 L100.110789,27.0468092 L102.324832,27.0468092 L102.324832,36.5889327 C102.32858,40.5172339 100.013331,42.1277875 97.280763,42.1277875 L97.280763,42.1277875 L97.280763,42.1277875 Z M97.4419433,28.8222914 C95.7702029,28.9659548 94.4863479,30.3648718 94.4863479,32.0427737 C94.4863479,33.7206757 95.7702029,35.1195926 97.4419433,35.263256 C99.0569943,35.0481199 100.262855,33.6699002 100.261591,32.0405839 C100.260326,30.4112676 99.0523284,29.0349209 97.4369455,28.8222914 L97.4419433,28.8222914 L97.4419433,28.8222914 Z M99.835908,15.9191214 L96.1874858,10.0679018 L96.2187223,11.1224458 L96.2187223,15.9191214 L95.0054969,15.9191214 L95.0054969,8.17247147 L96.3724058,8.17247147 L99.852151,13.7413132 L99.822164,12.6855198 L99.822164,8.17247147 L101.029142,8.17247147 L101.029142,15.9191214 L99.8296607,15.9191214 L99.835908,15.9191214 L99.835908,15.9191214 Z M89.9251939,16.086549 C88.8563149,16.1112835 87.8263874,15.6849815 87.087671,14.9120569 C85.5682608,13.3032575 85.5682608,10.7883354 87.087671,9.17953597 C87.8381682,8.42453548 88.8587674,8 89.9233197,8 C90.9878721,8 92.0084713,8.42453548 92.7589684,9.17953597 C94.2815027,10.7851615 94.2815027,13.3014335 92.7589684,14.9070591 C92.0204707,15.6816261 90.9901475,16.1097181 89.9201961,16.086549 L89.9251939,16.086549 L89.9251939,16.086549 Z M87.9785358,9.98168907 C86.9193832,11.1520421 86.9193832,12.9345529 87.9785358,14.104906 C89.055542,15.1777887 90.7973447,15.1777887 91.874351,14.104906 C92.9323135,12.9331719 92.9296121,11.1502118 91.8681037,9.98168907 C90.7965232,8.90895059 89.055114,8.90895059 87.9785358,9.98168907 L87.9785358,9.98168907 Z M91.1696557,32.0433985 C91.1777483,34.202578 89.8833182,36.1536544 87.8908144,36.98555 C85.8983107,37.8174457 83.6008153,37.3660439 82.0711703,35.8421319 C80.5415253,34.31822 80.0814996,32.0224358 80.9059077,30.0268224 C81.7303157,28.0312089 83.6765178,26.7294617 85.8357124,26.7294465 C87.2530734,26.7073934 88.6190698,27.2596784 89.6228278,28.2606122 C90.6265858,29.261546 91.1827174,30.6259809 91.1646579,32.0433985 L91.1696557,32.0433985 L91.1696557,32.0433985 Z M85.8357124,28.8222914 C84.5123283,28.7278169 83.2658674,29.4525619 82.6933151,30.6494139 C82.1207628,31.846266 82.33869,33.2715477 83.2427217,34.2426284 C84.1467534,35.2137091 85.5528299,35.5328781 86.7875189,35.0472712 C88.0222079,34.5616643 88.8341284,33.3701505 88.8344156,32.0433985 C88.8775728,31.2141675 88.5821524,30.4029572 88.0158558,29.7956724 C87.4495592,29.1883876 86.660936,28.8370919 85.8307146,28.8222914 L85.8357124,28.8222914 L85.8357124,28.8222914 Z M80.9478262,15.7941755 L80.9478262,15.9191214 L79.7346008,15.9191214 L79.7346008,9.34321518 L77.6405064,9.34321518 L77.6405064,8.17247147 L83.0369228,8.17247147 L83.0369228,9.34321518 L80.9428284,9.34321518 L80.9428284,15.7941755 L80.9478262,15.7941755 L80.9478262,15.7941755 Z M75.5876442,15.9191214 L75.4626982,15.9191214 L75.4626982,8.17247147 L76.6746741,8.17247147 L76.6746741,15.9191214 L75.5876442,15.9191214 L75.5876442,15.9191214 L75.5876442,15.9191214 Z M79.52844,32.0371512 C79.5370392,34.1970611 78.2424922,36.1490549 76.2494097,36.9814653 C74.2563272,37.8138756 71.9579919,37.362448 70.4278281,35.8380191 C68.8976642,34.3135903 68.4376096,32.0169663 69.2625301,30.0207722 C70.0874506,28.0245781 72.0345697,26.7227105 74.1944967,26.7231992 C75.6138156,26.6997406 76.9820945,27.252272 77.9871357,28.2547235 C78.9921768,29.2571749 79.5482366,30.6240237 79.52844,32.0433985 L79.52844,32.0371512 L79.52844,32.0371512 Z M74.1944967,28.8160441 C72.8711125,28.7215696 71.6246517,29.4463146 71.0520994,30.6431666 C70.4795471,31.8400187 70.6974742,33.2653004 71.6015059,34.2363811 C72.5055376,35.2074618 73.9116141,35.5266308 75.1463032,35.0410239 C76.3809922,34.555417 77.1929127,33.3639032 77.1931999,32.0371512 C77.2345906,31.2098229 76.9390613,30.401016 76.3740386,29.7952647 C75.809016,29.1895133 75.0227012,28.8384931 74.1944967,28.8222914 L74.1944967,28.8160441 L74.1944967,28.8160441 Z M69.8913576,15.7941755 L69.8913576,15.9191214 L68.6768828,15.9191214 L68.6768828,9.34321518 L66.5827884,9.34321518 L66.5827884,8.17247147 L71.985452,8.17247147 L71.985452,9.34321518 L69.8913576,9.34321518 L69.8913576,15.7941755 L69.8913576,15.7941755 L69.8913576,15.7941755 Z M60.351733,23.1060134 C57.0394569,23.1060134 54.3543266,25.7911438 54.3543266,29.1034199 C54.3543266,32.415696 57.0394569,35.1008263 60.351733,35.1008263 C61.911274,35.1640272 63.4248461,34.5649522 64.518681,33.4515395 C65.2354102,32.670278 65.6676971,31.6701194 65.7456504,30.6127671 L60.351733,30.6127671 L60.351733,28.3637397 L67.9397016,28.3637397 C68.0269136,28.8279579 68.0687593,29.2995593 68.0646475,29.7718808 C68.1283197,31.7175966 67.4272681,33.6108394 66.1117421,35.0458501 C64.6136241,36.6071212 62.5174198,37.4502439 60.3554814,37.3610988 C57.38266,37.3976772 54.6198728,35.8326549 53.1228026,33.2640394 C51.6257325,30.6954239 51.6257325,27.5201621 53.1228026,24.9515465 C54.6198728,22.382931 57.38266,20.8179088 60.3554814,20.8544871 C62.4700022,20.8223125 64.5085325,21.6423177 66.0117853,23.1297532 L64.4199737,24.7153175 C63.3290662,23.6635564 61.866938,23.0851715 60.351733,23.1060134 L60.351733,23.1060134 L60.351733,23.1060134 Z M61.202615,8.17247147 L65.8256158,8.17247147 L65.8256158,9.34321518 L62.4208382,9.34321518 L62.4208382,11.4672966 L65.4995068,11.4672966 L65.4995068,12.6167995 L62.4208382,12.6167995 L62.4208382,14.740881 L65.8356115,14.740881 L65.8356115,15.9191214 L61.2126107,15.9191214 L61.2126107,8.17247147 L61.202615,8.17247147 L61.202615,8.17247147 Z M59.1047722,14.9382956 L59.1047722,14.9382956 L59.1047722,14.9382956 C58.362729,15.7061967 57.3293999,16.1227078 56.2622515,16.0840501 C54.0306055,16.0840501 52.2214989,14.2749436 52.2214989,12.0432975 C52.2214989,9.81165151 54.0306055,8.00254496 56.2622515,8.00254496 C56.8081716,8.00062413 57.3486772,8.11076649 57.8503147,8.32615501 C58.319951,8.51770113 58.7377625,8.81736104 59.0697874,9.20077678 L59.1435055,9.28948842 L59.0622906,9.36945384 L58.3063675,10.1253769 L58.2189053,10.0216718 C57.7341734,9.45029146 57.0105226,9.13791092 56.2622515,9.17703705 C54.9671893,9.17687941 53.8320222,10.0429715 53.4901083,11.2920836 C53.1481944,12.5411957 53.6840183,13.8646806 54.798621,14.5241099 C55.9132237,15.1835391 57.3311944,15.0159721 58.261387,14.1149017 C58.5935495,13.7564153 58.7951569,13.296416 58.8336395,12.8092163 L56.1310582,12.8092163 L56.1310582,11.658464 L59.9931381,11.658464 L60.01188,11.7621691 C60.0471602,11.9559383 60.0651399,12.1524609 60.0656067,12.3494151 C60.111529,13.307955 59.7629594,14.2434942 59.1010239,14.9382956 L59.1010239,14.9382956 L59.1047722,14.9382956 L59.1047722,14.9382956 Z" id="Text" fill="#FFFFFF"></path>
        <path d="M15.9938175,41 C16.1330287,40.9450684 16.2683395,40.879997 16.3987426,40.8052703 L34.9704194,30.2486714 L30.5673087,25.6830961 L15.9938175,41 L15.9938175,41 L15.9938175,41 Z M35.7923475,29.7821131 L31.1991699,25.0191646 L35.7876859,20.1967398 L42.1067218,23.7761104 C43.6634906,24.6572404 42.8672013,25.7604152 42.1067218,26.1928298 L35.7923475,29.7821131 L35.7923475,29.7821131 L35.7923475,29.7821131 Z M34.9659696,19.7317234 L16.3987426,9.21169149 C16.1969509,9.10052181 15.9772574,9.02877096 15.7505657,9 L30.5630708,24.3594185 L34.9666053,19.7315032 L34.9666053,19.7315032 L34.9659696,19.7317234 Z M14.661654,9.18966324 L29.9312096,25.0231297 L14.7349685,40.9936118 C14.2914791,40.7015172 14.0537365,40.0684253 14.0497106,39.248754 C14.0420825,37.6796817 13.9213042,12.770796 13.9121928,10.9014786 C13.9077431,10.0064708 14.2217667,9.4597296 14.661654,9.18966324 L14.661654,9.18966324 Z" id="Logo" fill="#FFFFFF"></path>
    </g>
</svg>